Beverly.Hill.Ninja.1997.DvDrip.Dual.Audio.Eng-Hindi~MSBHATTI

IMDB:- http://www.imdb.com/title/tt0118708/

PLOT:- An unlikely man raised by ninjas, goes against a counterfeiter with the help of the criminal's girlfriend.

Director: Dennis Dugan
Writers: Mark Feldberg, Mitchell Klebanoff
Stars: Chris Farley, Nicollette Sheridan and Robin Shou

INFO:-

General
Complete name                    : Beverly.Hill.Ninja.1997.DvDrip.Dual.Audio.Eng-Hindi~MSBHATTI
Format                           : Matroska
File size                        : 845 MiB
Duration                         : 1h 24mn
Overall bit rate                 : 1 391 Kbps
Encoded date                     : UTC 2011-06-08 16:46:40
Writing application              : mkvmerge v3.3.0 ('Language') built on Mar 24 2010 14:59:24
Writing library                  : libebml v0.8.0 + libmatroska v0.9.0

Video
ID                               : 1
Format                           : MPEG-4 Visual
Format profile                   : Advanced Simple@L5
Format settings, BVOP            : Yes
Format settings, QPel            : No
Format settings, GMC             : No warppoints
Format settings, Matrix          : Custom
Codec ID                         : XVID
Codec ID/Hint                    : XviD
Duration                         : 1h 24mn
Bit rate                         : 932 Kbps
Width                            : 624 pixels
Height                           : 352 pixels
Display aspect ratio             : 16:9
Frame rate                       : 25.000 fps
Original frame rate              : 23.976 fps
Color space                      : YUV
Chroma subsampling               : 4:2:0
Bit depth                        : 8 bits
Scan type                        : Progressive
Compression mode                 : Lossy
Bits/(Pixel*Frame)               : 0.170
Stream size                      : 567 MiB (67%)
Writing library                  : XviD 1.2.1 (UTC 2008-12-04)

Audio #1
ID                               : 2
Format                           : MPEG Audio
Format version                   : Version 1
Format profile                   : Layer 3
Mode                             : Joint stereo
Mode extension                   : MS Stereo
Codec ID                         : A_MPEG/L3
Codec ID/Hint                    : MP3
Duration                         : 1h 28mn
Bit rate mode                    : Variable
Bit rate                         : 175 Kbps
Nominal bit rate                 : 192 Kbps
Channel(s)                       : 2 channels
Sampling rate                    : 48.0 KHz
Compression mode                 : Lossy
Stream size                      : 111 MiB (13%)
Title                            : MSBHATTI
Writing library                  : LAME3.98r
Encoding settings                : -m j -V 4 -q 2 -lowpass 18.6 --abr 192
Language                         : English

Audio #2
ID                               : 3
Format                           : MPEG Audio
Format version                   : Version 1
Format profile                   : Layer 3
Codec ID                         : A_MPEG/L3
Codec ID/Hint                    : MP3
Duration                         : 1h 24mn
Bit rate mode                    : Constant
Bit rate                         : 256 Kbps
Channel(s)                       : 2 channels
Sampling rate                    : 48.0 KHz
Compression mode                 : Lossy
Stream size                      : 156 MiB (18%)
Title                            : MSBHATTI
Language                         : Hindi

SCREENSHOTS:-
 
http://i1215.photobucket.com/albums/cc517/msbhatti/BeverlyHillsNinjaDvDripEng-Hindimkv_snapshot_001651_20110709_133425.jpg 
http://i1215.photobucket.com/albums/cc517/msbhatti/BeverlyHillsNinjaDvDripEng-Hindimkv_snapshot_000612_20110709_133312.jpg 
http://i1215.photobucket.com/albums/cc517/msbhatti/BeverlyHillsNinjaDvDripEng-Hindimkv_snapshot_000622_20110709_133352.jpg 
http://i1215.photobucket.com/albums/cc517/msbhatti/BeverlyHillsNinjaDvDripEng-Hindimkv_snapshot_011930_20110709_133843.jpg 
http://i1215.photobucket.com/albums/cc517/msbhatti/BeverlyHillsNinjaDvDripEng-Hindimkv_snapshot_005610_20110709_133734.jpg

IF U LIKE MY WORK SO COMMENT PLZ

REGARDS

MSBHATTI


